HIERARCHY
ROOT CG
{
	OFFSET 0.000000 0.000000 27.772259
	CHANNELS 6 Xposition Yposition Zposition Xrotation Yrotation Zrotation
	JOINT Pelvis
	{
		OFFSET 0.000000 0.000000 0.000000
		CHANNELS 3 Xrotation Yrotation Zrotation
		JOINT Spine
		{
			OFFSET -0.000017 -10.490843 -0.495483
			CHANNELS 3 Xrotation Yrotation Zrotation
			JOINT Spine1
			{
				OFFSET -0.000010 -22.678980 0.018061
				CHANNELS 3 Xrotation Yrotation Zrotation
				JOINT Spine2
				{
					OFFSET -0.000010 -22.678967 0.018061
					CHANNELS 3 Xrotation Yrotation Zrotation
					JOINT Spine3
					{
						OFFSET -0.000010 -22.678982 0.018059
						CHANNELS 3 Xrotation Yrotation Zrotation
						JOINT Neck
						{
							OFFSET -0.000012 -22.678986 -1.289251
							CHANNELS 3 Xrotation Yrotation Zrotation
							JOINT Neck1
							{
								OFFSET -0.000007 -16.255905 0.012947
								CHANNELS 3 Xrotation Yrotation Zrotation
								JOINT Head
								{
									OFFSET -0.000005 -10.784607 -0.287502
									CHANNELS 3 Xrotation Yrotation Zrotation
									JOINT Jaw01
									{
										OFFSET 0.000031 7.782959 5.073944
										CHANNELS 3 Xrotation Yrotation Zrotation
										JOINT Jaw02
										{
											OFFSET 0.000004 -34.927139 -18.883980
											CHANNELS 3 Xrotation Yrotation Zrotation
											End Site
											{
												OFFSET -0.000170 8.372803 -38.812450
											}
										}
									}
									JOINT Nose
									{
										OFFSET -0.000002 -25.700912 7.222265
										CHANNELS 3 Xrotation Yrotation Zrotation
										End Site
										{
											OFFSET -0.000090 0.641281 -21.715439
										}
									}
									JOINT L_EyeSocket
									{
										OFFSET 7.352326 -19.832718 14.164183
										CHANNELS 3 Xrotation Yrotation Zrotation
										JOINT L_Eye
										{
											OFFSET -0.000868 -0.001053 0.016003
											CHANNELS 3 Xrotation Yrotation Zrotation
											End Site
											{
												OFFSET -0.001505 -0.001846 0.027969
											}
										}
										JOINT L_Eyelid_Top
										{
											OFFSET -0.001004 -0.002625 0.032516
											CHANNELS 3 Xrotation Yrotation Zrotation
											End Site
											{
												OFFSET -0.013218 0.005753 0.024086
											}
										}
										JOINT L_Eyelid_Bottom
										{
											OFFSET -0.001194 -0.002777 0.035381
											CHANNELS 3 Xrotation Yrotation Zrotation
											End Site
											{
												OFFSET -0.010032 0.008636 -0.024754
											}
										}
									}
									JOINT R_EyeSocket
									{
										OFFSET -7.352252 -19.832748 14.164206
										CHANNELS 3 Xrotation Yrotation Zrotation
										JOINT R_Eye
										{
											OFFSET 0.000875 -0.001068 0.015991
											CHANNELS 3 Xrotation Yrotation Zrotation
											End Site
											{
												OFFSET 0.001505 -0.001846 0.027962
											}
										}
										JOINT R_Eyelid_Top
										{
											OFFSET 0.001021 -0.002625 0.032516
											CHANNELS 3 Xrotation Yrotation Zrotation
											End Site
											{
												OFFSET 0.013214 0.005753 0.024078
											}
										}
										JOINT R_Eyelid_Bottom
										{
											OFFSET 0.001170 -0.002762 0.035366
											CHANNELS 3 Xrotation Yrotation Zrotation
											End Site
											{
												OFFSET 0.010029 0.008636 -0.024746
											}
										}
									}
								}
								JOINT Neck_Fat
								{
									OFFSET 0.000044 -9.595100 -17.491512
									CHANNELS 3 Xrotation Yrotation Zrotation
									End Site
									{
										OFFSET -0.000036 15.369423 -0.000007
									}
								}
							}
						}
						JOINT L_Clavicle
						{
							OFFSET 4.567107 -11.666092 -3.750029
							CHANNELS 3 Xrotation Yrotation Zrotation
							JOINT L_UpperArm
							{
								OFFSET 20.725666 -0.000053 -0.000032
								CHANNELS 3 Xrotation Yrotation Zrotation
								JOINT L_Forearm
								{
									OFFSET 5.265112 -0.585754 -20.155697
									CHANNELS 3 Xrotation Yrotation Zrotation
									JOINT L_Hand
									{
										OFFSET 2.653017 -10.877708 -16.383667
										CHANNELS 3 Xrotation Yrotation Zrotation
										JOINT L_Finger0
										{
											OFFSET -4.206146 -4.328911 -5.034346
											CHANNELS 3 Xrotation Yrotation Zrotation
											JOINT L_Finger01
											{
												OFFSET 0.084272 -1.788536 -4.181065
												CHANNELS 3 Xrotation Yrotation Zrotation
												End Site
												{
													OFFSET 3.261885 3.094673 -0.685818
												}
											}
										}
										JOINT L_Finger1
										{
											OFFSET -1.039112 -6.775742 -3.499998
											CHANNELS 3 Xrotation Yrotation Zrotation
											JOINT L_Finger11
											{
												OFFSET 1.320335 -3.040672 -6.425793
												CHANNELS 3 Xrotation Yrotation Zrotation
												End Site
												{
													OFFSET -1.244579 6.832077 -2.013330
												}
											}
										}
										JOINT L_Finger2
										{
											OFFSET 2.531296 -5.656487 -3.286415
											CHANNELS 3 Xrotation Yrotation Zrotation
											JOINT L_Finger21
											{
												OFFSET 1.991665 -2.402016 -5.957748
												CHANNELS 3 Xrotation Yrotation Zrotation
												End Site
												{
													OFFSET -2.793068 5.800873 -1.944178
												}
											}
										}
										JOINT L_Finger3
										{
											OFFSET 5.474075 -3.302338 -2.655975
											CHANNELS 3 Xrotation Yrotation Zrotation
											JOINT L_Finger31
											{
												OFFSET 2.026943 -1.267532 -5.961166
												CHANNELS 3 Xrotation Yrotation Zrotation
												End Site
												{
													OFFSET -4.375172 4.343658 -1.800320
												}
											}
										}
										JOINT L_Finger4
										{
											OFFSET 4.825745 1.085899 -2.321970
											CHANNELS 3 Xrotation Yrotation Zrotation
											JOINT L_Finger41
											{
												OFFSET 3.358261 -1.829651 -3.744434
												CHANNELS 3 Xrotation Yrotation Zrotation
												End Site
												{
													OFFSET -3.843296 2.955200 -2.267633
												}
											}
										}
									}
								}
							}
						}
						JOINT R_Clavicle
						{
							OFFSET -4.567111 -11.666092 -3.750036
							CHANNELS 3 Xrotation Yrotation Zrotation
							JOINT R_UpperArm
							{
								OFFSET -20.725670 -0.000031 0.000038
								CHANNELS 3 Xrotation Yrotation Zrotation
								JOINT R_Forearm
								{
									OFFSET -5.265285 -0.585762 -20.155655
									CHANNELS 3 Xrotation Yrotation Zrotation
									JOINT R_Hand
									{
										OFFSET -2.653147 -10.877739 -16.383663
										CHANNELS 3 Xrotation Yrotation Zrotation
										JOINT R_Finger0
										{
											OFFSET 4.206116 -4.328888 -5.034388
											CHANNELS 3 Xrotation Yrotation Zrotation
											JOINT R_Finger01
											{
												OFFSET -0.084324 -1.788544 -4.181051
												CHANNELS 3 Xrotation Yrotation Zrotation
												End Site
												{
													OFFSET -3.261890 3.094666 -0.685791
												}
											}
										}
										JOINT R_Finger1
										{
											OFFSET 1.039101 -6.775711 -3.499994
											CHANNELS 3 Xrotation Yrotation Zrotation
											JOINT R_Finger11
											{
												OFFSET -1.320374 -3.040672 -6.425779
												CHANNELS 3 Xrotation Yrotation Zrotation
												End Site
												{
													OFFSET 1.244556 6.832077 -2.013342
												}
											}
										}
										JOINT R_Finger2
										{
											OFFSET -2.531307 -5.656464 -3.286409
											CHANNELS 3 Xrotation Yrotation Zrotation
											JOINT R_Finger21
											{
												OFFSET -1.991707 -2.402016 -5.957708
												CHANNELS 3 Xrotation Yrotation Zrotation
												End Site
												{
													OFFSET 2.793037 5.800858 -1.944197
												}
											}
										}
										JOINT R_Finger3
										{
											OFFSET -5.474091 -3.302330 -2.655947
											CHANNELS 3 Xrotation Yrotation Zrotation
											JOINT R_Finger31
											{
												OFFSET -2.026993 -1.267532 -5.961157
												CHANNELS 3 Xrotation Yrotation Zrotation
												End Site
												{
													OFFSET 4.375156 4.343674 -1.800358
												}
											}
										}
										JOINT R_Finger4
										{
											OFFSET -4.825756 1.085922 -2.321926
											CHANNELS 3 Xrotation Yrotation Zrotation
											JOINT R_Finger41
											{
												OFFSET -3.358307 -1.829651 -3.744390
												CHANNELS 3 Xrotation Yrotation Zrotation
												End Site
												{
													OFFSET 3.843273 2.955208 -2.267666
												}
											}
										}
									}
								}
							}
						}
					}
				}
			}
		}
		JOINT Tail01
		{
			OFFSET -0.000010 10.922326 -0.017508
			CHANNELS 3 Xrotation Yrotation Zrotation
			JOINT Tail02
			{
				OFFSET -0.000022 21.986111 0.000013
				CHANNELS 3 Xrotation Yrotation Zrotation
				JOINT Tail03
				{
					OFFSET -0.000022 21.986118 0.000002
					CHANNELS 3 Xrotation Yrotation Zrotation
					JOINT Tail04
					{
						OFFSET -0.000022 21.986122 0.000004
						CHANNELS 3 Xrotation Yrotation Zrotation
						JOINT Tail05
						{
							OFFSET -0.000022 21.986099 0.000010
							CHANNELS 3 Xrotation Yrotation Zrotation
							JOINT Tail06
							{
								OFFSET -0.000022 21.986099 0.000006
								CHANNELS 3 Xrotation Yrotation Zrotation
								JOINT Tail07
								{
									OFFSET -0.000022 21.986099 0.000000
									CHANNELS 3 Xrotation Yrotation Zrotation
									JOINT Tail08
									{
										OFFSET -0.000022 21.984848 0.000050
										CHANNELS 3 Xrotation Yrotation Zrotation
										JOINT Tail09
										{
											OFFSET -0.000025 21.926025 -1.606211
											CHANNELS 3 Xrotation Yrotation Zrotation
											JOINT Tail10
											{
												OFFSET -0.000027 21.750092 -3.203882
												CHANNELS 3 Xrotation Yrotation Zrotation
												End Site
												{
													OFFSET -0.000036 4.767395 21.461668
												}
											}
										}
									}
								}
							}
						}
					}
				}
			}
		}
		JOINT L_Thigh
		{
			OFFSET 24.788780 0.000021 -0.000034
			CHANNELS 3 Xrotation Yrotation Zrotation
			JOINT L_Calf
			{
				OFFSET 4.720837 4.161326 -21.049969
				CHANNELS 3 Xrotation Yrotation Zrotation
				JOINT L_Foot
				{
					OFFSET 2.154160 21.114433 -11.949743
					CHANNELS 3 Xrotation Yrotation Zrotation
					JOINT L_Toe0
					{
						OFFSET 4.557564 9.251841 -8.735286
						CHANNELS 3 Xrotation Yrotation Zrotation
						End Site
						{
							OFFSET 4.555542 -12.646044 1.018752
						}
					}
					JOINT L_Toe1
					{
						OFFSET 2.346291 5.845602 -11.687160
						CHANNELS 3 Xrotation Yrotation Zrotation
						End Site
						{
							OFFSET 5.347954 -12.298279 1.365644
						}
					}
					JOINT L_Toe2
					{
						OFFSET -0.356020 3.902458 -12.541145
						CHANNELS 3 Xrotation Yrotation Zrotation
						End Site
						{
							OFFSET 3.916235 -12.806129 1.542549
						}
					}
					JOINT L_Toe3
					{
						OFFSET -4.603447 3.183935 -12.435249
						CHANNELS 3 Xrotation Yrotation Zrotation
						End Site
						{
							OFFSET 3.810858 -12.587427 2.957583
						}
					}
					JOINT L_Toe4
					{
						OFFSET -7.144358 6.231495 -10.072764
						CHANNELS 3 Xrotation Yrotation Zrotation
						End Site
						{
							OFFSET 3.810858 -12.587425 2.957585
						}
					}
				}
			}
		}
		JOINT R_Thigh
		{
			OFFSET -24.788780 -0.000024 0.000034
			CHANNELS 3 Xrotation Yrotation Zrotation
			JOINT R_Calf
			{
				OFFSET -4.720922 4.161324 -21.049952
				CHANNELS 3 Xrotation Yrotation Zrotation
				JOINT R_Foot
				{
					OFFSET -2.154238 21.114414 -11.949730
					CHANNELS 3 Xrotation Yrotation Zrotation
					JOINT R_Toe0
					{
						OFFSET -4.557598 9.251823 -8.735270
						CHANNELS 3 Xrotation Yrotation Zrotation
						End Site
						{
							OFFSET -4.555508 -12.646051 1.018756
						}
					}
					JOINT R_Toe1
					{
						OFFSET -2.346325 5.845589 -11.687157
						CHANNELS 3 Xrotation Yrotation Zrotation
						End Site
						{
							OFFSET -5.347919 -12.298286 1.365654
						}
					}
					JOINT R_Toe2
					{
						OFFSET 0.355980 3.902462 -12.541145
						CHANNELS 3 Xrotation Yrotation Zrotation
						End Site
						{
							OFFSET -3.916199 -12.806131 1.542559
						}
					}
					JOINT R_Toe3
					{
						OFFSET 4.603411 3.183941 -12.435266
						CHANNELS 3 Xrotation Yrotation Zrotation
						End Site
						{
							OFFSET -3.810825 -12.587429 2.957591
						}
					}
					JOINT R_Toe4
					{
						OFFSET 7.144323 6.231503 -10.072779
						CHANNELS 3 Xrotation Yrotation Zrotation
						End Site
						{
							OFFSET -3.810825 -12.587433 2.957584
						}
					}
				}
			}
		}
	}
}
MOTION
Frames: 4
Frame Time: 0.033333
12.000000 -0.000001 36.000000 -0.000000 0.000000 -0.000051 0.000001 0.000000 13.456139 -0.210660 -2.952685 -3.689732 -0.479265 -3.006186 -4.391186 -0.799872 -2.992768 -4.933619 -0.012122 -3.074862 -7.253880 -0.041133 -0.165545 -3.129921 -3.257518 3.148748 -2.739344 1.013091 6.667248 -0.394478 -17.253316 -0.000021 0.000025 0.000017 0.000000 -0.000001 0.000020 0.000000 0.000002 0.000001 0.000000 -0.000002 0.000141 -0.000086 -0.000004 0.000001 -0.000003 -0.000001 0.000001 -0.000005 0.000005 0.000001 0.000000 -0.000002 0.000140 0.000087 -0.000013 0.000005 -0.000007 0.000001 -0.000009 0.000013 0.000002 -0.000000 0.000008 0.000000 0.000513 13.386945 10.696919 88.218484 -12.718607 -8.900528 -15.854976 3.046074 -3.842275 22.704534 -2.712495 -35.661374 17.515462 -3.433417 -0.020907 8.941356 -5.638883 0.726223 8.824678 1.946061 0.776743 8.824667 1.946067 0.776752 7.978790 4.238634 0.694304 7.978826 4.238637 0.694310 6.213813 6.597699 0.363297 6.213814 6.597710 0.363282 5.100413 7.461119 0.645481 5.100348 7.461103 0.645505 0.001480 -18.440596 -11.352642 89.259945 18.495534 -45.017490 -6.349032 -1.086939 1.632871 0.895980 -0.694644 14.742219 6.817905 -7.694816 4.439566 -4.449557 -8.290408 5.013580 -10.859430 2.186526 1.345336 -10.859426 2.186532 1.345333 -9.885897 4.998700 1.647501 -9.885886 4.998690 1.647507 -7.745927 7.971605 1.426297 -7.745963 7.971598 1.426281 -6.442757 9.018791 1.709111 -6.442753 9.018783 1.709096 -0.028679 0.001104 2.301686 -0.028952 0.000868 -1.090042 -0.028812 -0.004498 5.656856 -0.027491 -0.003616 4.545209 -0.026840 -0.000135 0.169955 -0.027515 0.002760 -3.468169 -0.029331 0.004839 -6.091045 -0.026539 -0.566512 -7.843293 -0.311322 -1.728050 -11.884705 -0.850337 -3.192172 -14.540860 20.112937 1.544053 8.329709 13.302927 0.723983 2.990207 40.017276 20.159939 8.268319 14.852689 6.555530 4.804981 14.878959 7.495077 3.294763 16.253473 5.330664 0.860196 16.540724 4.471541 -1.840441 16.255756 3.122912 -5.011552 39.757513 -0.437274 4.596048 -2.981463 0.065724 0.686955 40.166929 2.877305 -9.155713 -0.000016 -0.000008 -0.000010 -0.000000 0.000003 -0.000007 0.000013 -0.000005 -0.000001 -0.000003 -0.000000 -0.000000 -0.000010 0.000002 -0.000001 
13.865177 -0.000002 36.000000 -0.000000 0.000000 -0.000051 0.000000 0.000000 12.439530 -0.317692 -3.351555 -4.686452 -0.534744 -2.909572 -4.605405 -0.810925 -2.897315 -4.881506 0.195752 -2.982001 -6.302821 -0.037781 -0.129436 -2.522414 -3.303152 3.275639 -1.791234 1.316994 6.907211 -0.457698 -17.210979 -0.000022 0.000026 0.000016 0.000000 -0.000002 0.000021 -0.000000 0.000000 0.000001 0.000000 -0.000000 0.000140 -0.000087 -0.000001 0.000003 -0.000005 -0.000000 0.000003 -0.000003 0.000002 0.000000 0.000000 -0.000003 0.000140 0.000088 -0.000018 0.000006 -0.000009 -0.000002 -0.000006 0.000013 -0.000000 0.000000 0.000005 -0.000001 0.000480 13.614260 10.990474 87.860111 -12.861708 -6.880939 -14.830601 2.817023 -3.619386 22.015131 -0.675079 -33.941194 16.913352 -2.853661 -0.313321 7.837685 -4.601154 0.158190 7.287273 1.600113 0.667373 7.288045 1.598653 0.663055 6.589661 3.493595 0.615762 6.589694 3.493600 0.615780 5.129595 5.445583 0.351502 5.129589 5.445603 0.351488 4.213094 6.157081 0.580534 4.213031 6.157075 0.580560 0.000823 -18.353231 -11.159080 89.635503 17.781045 -42.680373 -8.478306 -1.492383 2.154031 1.540149 -1.125640 14.839102 7.292456 -7.166499 4.288410 -3.980607 -7.758706 4.861318 -10.136790 2.049947 1.244252 -10.136939 2.049707 1.243389 -9.225902 4.673682 1.504607 -9.223664 4.676499 1.511292 -7.225160 7.447322 1.288794 -7.222149 7.449308 1.297411 -6.002937 8.426847 1.563019 -6.002932 8.426850 1.562991 -0.028761 0.002886 2.426742 -0.029017 -0.006583 -0.473008 -0.029224 -0.000547 5.938184 -0.027494 -0.003614 5.122963 -0.026967 0.005112 1.276551 -0.027225 0.011560 -1.999441 -0.026593 0.005553 -4.454224 0.134677 0.534623 -6.289219 0.429120 0.713576 -10.609928 0.980051 0.349101 -14.041314 21.270553 1.735384 7.110022 12.119654 0.631543 2.731561 39.604312 19.070264 8.738594 14.992742 6.617630 4.842189 15.021198 7.567130 3.309384 16.407612 5.381299 0.858553 16.697950 4.512242 -1.860557 16.411049 3.144249 -5.062636 38.992543 -0.254716 2.919254 -2.237346 0.052672 0.515216 41.689108 0.978448 -8.358549 -0.000019 -0.000006 -0.000003 -0.000001 0.000004 -0.000002 0.000027 0.000114 -0.000011 -0.000003 0.000001 -0.000001 -0.000015 0.000003 -0.000003 
15.274810 -0.000002 36.000000 -0.000000 0.000000 -0.000051 0.000000 0.000000 10.455601 -0.363506 -3.758553 -4.736577 -0.595587 -2.835487 -4.860090 -0.827969 -2.824588 -4.853205 0.401752 -2.907653 -5.348831 -0.035181 -0.092030 -1.930848 -3.350906 3.457979 -0.823459 1.612973 7.145393 -0.521246 -17.165968 -0.000021 0.000025 0.000018 0.000000 -0.000001 0.000020 0.000000 0.000001 0.000001 0.000000 -0.000000 0.000141 -0.000086 -0.000004 0.000003 -0.000003 -0.000001 0.000002 -0.000001 0.000000 0.000000 0.000000 -0.000003 0.000140 0.000088 -0.000014 0.000005 -0.000006 -0.000000 -0.000007 0.000015 0.000003 -0.000000 0.000007 -0.000001 0.000498 14.042459 11.502084 87.343708 -13.851674 -3.373161 -13.309990 2.484728 -3.281414 20.633382 3.585731 -30.324254 15.862653 -1.828837 -0.816222 5.944465 -2.773160 -0.779747 4.615061 1.000274 0.444304 4.614723 1.002204 0.443340 4.174027 2.202778 0.435107 4.173637 2.203288 0.436364 3.248628 3.442626 0.275566 3.247483 3.443355 0.279031 2.669853 3.892745 0.420620 2.670550 3.892310 0.419752 0.001313 -18.226126 -11.040762 90.432975 17.325086 -39.831672 -11.044868 -2.007282 2.762826 2.381831 -1.816467 14.543990 7.902756 -6.497569 4.072341 -3.375790 -7.082998 4.653793 -9.210566 1.872382 1.115148 -9.210563 1.872325 1.115170 -8.375134 4.266690 1.337940 -8.375743 4.260944 1.342135 -6.552761 6.777642 1.139367 -6.552797 6.777643 1.139374 -5.441921 7.665946 1.382614 -5.441917 7.665952 1.382600 -0.028749 0.002265 2.612864 -0.028915 -0.010745 0.257674 -0.029460 0.001458 6.189542 -0.027329 -0.005354 5.667083 -0.027117 0.005657 2.376334 -0.027490 0.013153 -0.497835 -0.024490 0.005258 -2.755857 0.149908 0.570866 -4.579184 0.438880 0.828497 -8.775396 0.967079 0.578872 -12.357014 22.492325 2.272383 6.608191 10.816456 0.535977 2.444666 39.280947 17.877305 9.309292 15.152790 6.701971 4.885531 15.179576 7.662834 3.341733 16.586645 5.442276 0.861833 16.882185 4.556034 -1.891312 16.594617 3.162290 -5.121123 38.152610 0.500242 1.801448 -1.471106 0.036904 0.338555 43.547452 -0.990598 -7.561193 -0.000007 -0.000001 -0.000004 0.000001 -0.000001 -0.000006 0.000121 0.000396 -0.000049 -0.000001 -0.000001 -0.000000 -0.000013 0.000003 -0.000002 
16.764982 -0.000002 36.000000 -0.000000 0.000000 -0.000051 0.000000 0.000000 8.338930 -0.389735 -4.165971 -4.649414 -0.656215 -2.764680 -5.120073 -0.844072 -2.755413 -4.828049 0.605787 -2.833324 -4.396904 -0.033372 -0.055235 -1.342638 -3.402827 3.646645 0.146926 1.909226 7.369240 -0.581972 -17.117861 -0.000020 0.000024 0.000017 -0.000000 -0.000001 0.000020 0.000000 0.000001 0.000000 0.000001 -0.000003 0.000140 -0.000086 -0.000006 0.000004 -0.000003 -0.000003 -0.000000 -0.000005 0.000003 0.000000 0.000000 -0.000003 0.000139 0.000088 -0.000014 0.000006 -0.000009 -0.000002 -0.000008 0.000013 0.000001 -0.000000 0.000007 -0.000001 0.009422 14.508855 12.050925 86.908522 -15.020354 0.425572 -11.696554 2.142435 -2.913779 18.838519 8.031075 -26.226367 14.740426 -0.713575 -1.335952 3.961237 -0.786333 -1.721459 1.757516 0.372792 0.174899 1.756260 0.376998 0.178135 1.589291 0.834315 0.184860 1.589312 0.834325 0.184867 1.237397 1.307497 0.127103 1.236722 1.307920 0.129090 1.018640 1.478292 0.180954 1.018605 1.478265 0.180966 0.002057 -18.089520 -10.937989 91.366143 16.936615 -36.901972 -13.688607 -2.566641 3.366472 3.299940 -2.572039 14.183307 8.543229 -5.796120 3.848250 -2.739310 -6.375270 4.430961 -8.238930 1.683976 0.983606 -8.238902 1.683972 0.983725 -7.488733 3.819889 1.169373 -7.487678 3.822205 1.171352 -5.853929 6.070412 0.980315 -5.853303 6.070843 0.982231 -4.856772 6.865578 1.201705 -4.856763 6.865572 1.201684 -0.028650 0.000058 2.832250 -0.028740 -0.012324 1.077411 -0.029535 0.001801 6.491578 -0.027036 -0.008020 6.163287 -0.027152 0.003930 3.342790 -0.027761 0.010458 0.829215 -0.022878 0.004218 -1.169321 0.168132 0.597674 -2.828374 0.456771 0.951637 -6.728197 0.966583 0.843737 -10.334735 23.739134 2.932579 6.095029 9.434545 0.441825 2.138264 38.976632 16.590939 10.030175 15.626774 6.934309 5.013341 15.660222 7.912107 3.414676 17.114391 5.617224 0.863862 17.421963 4.691327 -1.973811 17.124618 3.241977 -5.300792 37.268155 1.356470 0.674093 -0.684622 0.018258 0.157445 45.776413 -2.958683 -6.735880 -0.000009 0.000003 -0.000004 -0.000000 0.000001 -0.000005 0.000245 0.000820 -0.000097 -0.000002 0.000000 0.000001 -0.000013 0.000004 0.000001 
